<?xml version="1.0" encoding="UTF-8"?>
<svg id="Layer_2" data-name="Layer 2" xmlns="http://www.w3.org/2000/svg" xmlns:xlink="http://www.w3.org/1999/xlink" viewBox="0 0 2274.04 210.32">
  <defs>
    <style>
      .cls-1 {
        fill: url(#linear-gradient);
      }

      .cls-1, .cls-2, .cls-3, .cls-4, .cls-5, .cls-6 {
        stroke-width: 0px;
      }

      .cls-7 {
        clip-path: url(#clippath-2);
      }

      .cls-2 {
        fill: #022ae9;
      }

      .cls-3 {
        fill: none;
      }

      .cls-8 {
        clip-path: url(#clippath-1);
      }

      .cls-4 {
        fill: url(#linear-gradient-2);
      }

      .cls-5 {
        fill: url(#linear-gradient-3);
      }

      .cls-9 {
        clip-path: url(#clippath);
      }

      .cls-6 {
        fill: #00183f;
      }
    </style>
    <clipPath id="clippath">
      <path class="cls-3" d="m72.53,8.42v27.92c22,14.98,36.44,40.2,36.44,68.83s-14.45,53.85-36.44,68.83v27.92c0,4.88,4.17,8.85,9.03,8.38,53.58-5.12,95.47-50.21,95.47-105.12S135.14,5.16,81.56.04c-.27-.03-.53-.04-.79-.04-4.51,0-8.24,3.8-8.24,8.42"/>
    </clipPath>
    <linearGradient id="linear-gradient" x1="3460.43" y1="583.96" x2="3463.39" y2="583.96" gradientTransform="translate(-185281 31376.6) scale(53.55 -53.55)" gradientUnits="userSpaceOnUse">
      <stop offset="0" stop-color="#18c3ff"/>
      <stop offset="1" stop-color="#1846ef"/>
      <stop offset="1" stop-color="#1846ef"/>
    </linearGradient>
    <clipPath id="clippath-1">
      <path class="cls-3" d="m26.61,30.92v27.8c15.93,9.33,26.64,26.64,26.64,46.45s-10.72,37.12-26.64,46.45v27.8c0,5.09,4.5,8.97,9.53,8.35,13.35-1.69,25.76-6.51,36.38-13.77V36.33c-10.63-7.25-23.03-12.08-36.38-13.77-.36-.04-.71-.07-1.06-.07-4.59,0-8.47,3.68-8.47,8.41"/>
    </clipPath>
    <linearGradient id="linear-gradient-2" x1="3428.95" y1="601.25" x2="3431.91" y2="601.25" gradientTransform="translate(-124332.17 21904.51) scale(36.26 -36.26)" xlink:href="#linear-gradient"/>
    <clipPath id="clippath-2">
      <path class="cls-3" d="m0,60.64v89.05c0,5.36,4.91,9.3,10.16,8.23,5.89-1.18,11.42-3.35,16.46-6.31V58.71c-5.03-2.96-10.57-5.12-16.46-6.31-.58-.12-1.16-.17-1.73-.17-4.55,0-8.43,3.64-8.43,8.4"/>
    </clipPath>
    <linearGradient id="linear-gradient-3" x1="3433.88" y1="628.2" x2="3436.84" y2="628.2" gradientTransform="translate(-109642.67 20155.5) scale(31.92 -31.92)" xlink:href="#linear-gradient"/>
  </defs>
  <g id="Layer_1-2" data-name="Layer 1">
    <g>
      <g>
        <path class="cls-6" d="m271.65,21.42h-70.92v177.3h70.92c48.89,0,86.12-38.5,86.12-88.65s-37.24-88.65-86.12-88.65m0,138.3h-30.39V60.43h30.39c27.86,0,47.11,19.25,47.11,49.64s-19.25,49.65-47.11,49.65"/>
        <path class="cls-6" d="m393.22,15.34c-12.41,0-22.8,10.39-22.8,22.8s10.39,22.8,22.8,22.8,22.8-10.39,22.8-22.8-10.39-22.8-22.8-22.8"/>
        <rect class="cls-6" x="374.22" y="72.08" width="37.99" height="126.65"/>
        <path class="cls-6" d="m469.71,109.06c0-4.56,4.06-7.09,10.64-7.09,8.35,0,13.42,4.56,16.97,11.15l32.42-17.48c-10.64-17.98-28.88-27.1-49.39-27.1-26.34,0-49.65,13.93-49.65,41.54,0,43.82,62.31,36.48,62.31,50.41,0,5.07-4.56,7.85-13.67,7.85-11.15,0-18.24-5.32-21.53-14.94l-32.93,18.74c9.88,20.52,29.13,30.14,54.46,30.14,27.35,0,52.69-12.41,52.69-41.54,0-46.86-62.31-37.23-62.31-51.67"/>
        <path class="cls-6" d="m583.27,36.61l-37.99,11.4v105.37c0,35.46,14.44,50.41,64.08,45.34v-34.45c-16.72,1.01-26.09,0-26.09-10.89v-44.83h26.09v-36.48h-26.09v-35.46Z"/>
        <path class="cls-6" d="m666.35,94.62v-22.54h-37.99v126.65h37.99v-57.24c0-25.08,22.29-31.41,37.99-28.88v-43.06c-15.96,0-32.93,8.11-37.99,25.08"/>
        <path class="cls-6" d="m736,15.34c-12.41,0-22.8,10.39-22.8,22.8s10.39,22.8,22.8,22.8,22.8-10.39,22.8-22.8-10.39-22.8-22.8-22.8"/>
        <rect class="cls-6" x="717" y="72.08" width="37.99" height="126.65"/>
        <path class="cls-6" d="m853.52,68.53c-16.97,0-29.38,5.83-37.74,15.45V21.42h-37.99v177.3h37.99v-11.91c8.36,9.63,20.77,15.45,37.74,15.45,33.18,0,60.54-29.13,60.54-66.87s-27.36-66.87-60.54-66.87m-7.6,97.77c-17.48,0-30.15-11.9-30.15-30.9s12.67-30.9,30.15-30.9,30.15,11.91,30.15,30.9-12.67,30.9-30.15,30.9"/>
        <path class="cls-6" d="m1012.32,141.22c0,17.98-9.63,26.09-23.55,26.09-12.16,0-22.04-7.34-22.04-23.05v-72.19h-38v77.76c0,34.2,21.79,52.43,47.37,52.43,16.72,0,29.39-6.08,36.22-15.45v11.9h37.99v-126.65h-37.99v69.15Z"/>
        <path class="cls-6" d="m1107.23,36.61l-37.99,11.4v105.37c0,35.46,14.44,50.41,64.08,45.34v-34.45c-16.72,1.01-26.09,0-26.09-10.89v-44.83h26.09v-36.48h-26.09v-35.46Z"/>
        <path class="cls-6" d="m1208.29,68.53c-40.02,0-67.37,29.13-67.37,66.87s26.85,66.87,70.16,66.87c24.06,0,42.8-8.87,55.21-26.09l-30.4-17.48c-5.07,5.57-13.93,9.62-24.31,9.62-13.93,0-25.58-4.56-30.4-17.73h89.92c1.01-4.81,1.52-9.88,1.52-15.2,0-38.25-27.35-66.87-64.34-66.87m-27.86,53.7c3.55-12.92,13.17-20.01,27.61-20.01,11.4,0,22.8,5.32,26.85,20.01h-54.46Z"/>
        <path class="cls-6" d="m1379.77,83.98c-8.36-9.62-20.77-15.45-37.74-15.45-33.18,0-60.53,29.13-60.53,66.87s27.35,66.87,60.53,66.87c16.97,0,29.38-5.83,37.74-15.45v11.91h37.99V21.42h-37.99v62.56Zm-30.15,82.32c-17.48,0-30.14-11.9-30.14-30.9s12.66-30.9,30.14-30.9,30.15,11.91,30.15,30.9-12.67,30.9-30.15,30.9"/>
        <polygon class="cls-6" points="1609.74 174.66 1563.65 21.42 1542.88 21.42 1496.78 174.66 1452.96 21.42 1434.22 21.42 1485.63 198.72 1506.91 198.72 1553.26 44.72 1599.61 198.72 1620.89 198.72 1672.31 21.42 1653.56 21.42 1609.74 174.66"/>
        <rect class="cls-6" x="1687.5" y="72.08" width="16.72" height="126.65"/>
        <path class="cls-6" d="m1695.86,20.91c-6.84,0-12.16,5.57-12.16,12.16s5.32,12.16,12.16,12.16,12.16-5.57,12.16-12.16-5.32-12.16-12.16-12.16"/>
        <path class="cls-6" d="m1751.26,36.61l-16.72,5.07v123.35c0,30.4,18.99,38.75,53.19,33.69v-14.69c-24.57,1.02-36.47,2.79-36.47-19v-76.75h36.47v-16.21h-36.47v-35.46Z"/>
        <path class="cls-6" d="m1869.79,69.04c-17.98,0-32.67,6.84-42.55,22.8v-19.76h-16.72v126.65h16.72v-66.36c0-33.94,18.75-47.11,41.03-47.11s34.45,13.17,34.45,35.71v77.76h16.71v-77.76c0-31.66-18.74-51.93-49.64-51.93"/>
        <path class="cls-6" d="m2005.3,69.04c-39.26,0-66.11,29.13-66.11,66.36s27.36,66.36,67.38,66.36c25.58,0,45.08-11.9,55.72-29.13l-14.69-8.61c-6.84,12.16-20.77,21.53-40.78,21.53-26.85,0-46.86-15.96-50.41-41.79h111.2c.25-2.53.51-5.32.51-7.85,0-34.7-24.06-66.87-62.82-66.87m-48.89,58.51c3.3-24.82,22.29-42.3,48.89-42.3,21.78,0,42.05,14.44,45.6,42.3h-94.48Z"/>
        <path class="cls-6" d="m2097.75,105.26c0-13.68,13.42-20.01,26.6-20.01,12.16,0,25.08,4.81,30.4,17.73l13.93-8.11c-7.34-15.7-23.56-25.84-44.33-25.84-25.33,0-43.31,15.96-43.31,36.22,0,46.61,73.97,28.62,73.97,60.03,0,14.94-14.19,20.26-29.13,20.26-16.97,0-30.14-8.36-34.7-21.27l-14.19,8.36c6.33,16.21,23.55,29.13,48.88,29.13,27.1,0,45.85-14.94,45.85-36.47,0-46.61-73.96-28.62-73.96-60.03"/>
        <path class="cls-6" d="m2200.07,105.26c0-13.68,13.42-20.01,26.6-20.01,12.16,0,25.08,4.81,30.4,17.73l13.93-8.11c-7.34-15.7-23.56-25.84-44.33-25.84-25.33,0-43.31,15.96-43.31,36.22,0,46.61,73.97,28.62,73.97,60.03,0,14.94-14.19,20.26-29.13,20.26-16.97,0-30.14-8.36-34.7-21.27l-14.19,8.36c6.33,16.21,23.55,29.13,48.88,29.13,27.1,0,45.85-14.94,45.85-36.47,0-46.61-73.96-28.62-73.96-60.03"/>
      </g>
      <g>
        <g class="cls-9">
          <rect class="cls-1" x="13.8" y="-6.54" width="221.96" height="223.85" transform="translate(-38.13 117.05) rotate(-44.28)"/>
        </g>
        <path class="cls-2" d="m108.97,105.16c0,28.63-14.45,53.85-36.44,68.83V36.33c22,14.98,36.44,40.2,36.44,68.83"/>
        <g class="cls-8">
          <rect class="cls-4" x="-20.76" y="26.74" width="140.67" height="157.4" transform="translate(-55.61 55.32) rotate(-39.34)"/>
        </g>
        <path class="cls-2" d="m53.26,105.16c0,19.81-10.72,37.12-26.64,46.45V58.71c15.93,9.33,26.64,26.64,26.64,46.45"/>
        <g class="cls-7">
          <rect class="cls-5" x="-36.49" y="61.6" width="99.6" height="88.02" transform="translate(-77.01 49.28) rotate(-50.87)"/>
        </g>
      </g>
    </g>
  </g>
</svg>