<?xml version="1.0" encoding="UTF-8"?>
<svg id="Layer_2" data-name="Layer 2" xmlns="http://www.w3.org/2000/svg" xmlns:xlink="http://www.w3.org/1999/xlink" viewBox="0 0 529.88 629.53">
  <defs>
    <style>
      .cls-1 {
        fill: url(#linear-gradient);
      }

      .cls-1, .cls-2, .cls-3, .cls-4, .cls-5 {
        stroke-width: 0px;
      }

      .cls-6 {
        clip-path: url(#clippath-2);
      }

      .cls-2 {
        fill: #022ae9;
      }

      .cls-3 {
        fill: none;
      }

      .cls-7 {
        clip-path: url(#clippath-1);
      }

      .cls-4 {
        fill: url(#linear-gradient-2);
      }

      .cls-5 {
        fill: url(#linear-gradient-3);
      }

      .cls-8 {
        clip-path: url(#clippath);
      }
    </style>
    <clipPath id="clippath">
      <path class="cls-3" d="m217.09,25.19v83.56c65.84,44.84,109.08,120.33,109.08,206.02s-43.24,161.18-109.08,206.02v83.56c0,14.62,12.49,26.49,27.03,25.08,160.38-15.33,285.76-150.28,285.76-314.65S404.5,15.44,244.12.12c-.8-.08-1.58-.12-2.37-.12-13.5,0-24.66,11.37-24.66,25.19"/>
    </clipPath>
    <linearGradient id="linear-gradient" x1="606.82" y1="1165.11" x2="615.68" y2="1165.11" gradientTransform="translate(-32419.85 62707.39) scale(53.55 -53.55)" gradientUnits="userSpaceOnUse">
      <stop offset="0" stop-color="#18c3ff"/>
      <stop offset="1" stop-color="#1846ef"/>
      <stop offset="1" stop-color="#1846ef"/>
    </linearGradient>
    <clipPath id="clippath-1">
      <path class="cls-3" d="m79.66,92.53v83.2c47.67,27.91,79.75,79.75,79.75,139.03s-32.08,111.12-79.75,139.03v83.2c0,15.24,13.47,26.85,28.53,24.99,39.96-5.05,77.09-19.49,108.9-41.2V108.75c-31.81-21.71-68.94-36.15-108.9-41.2-1.06-.13-2.13-.19-3.17-.19-13.73,0-25.36,11.02-25.36,25.18"/>
    </clipPath>
    <linearGradient id="linear-gradient-2" x1="599.36" y1="1174.27" x2="608.22" y2="1174.27" gradientTransform="translate(-21764.19 42890.28) scale(36.26 -36.26)" xlink:href="#linear-gradient"/>
    <clipPath id="clippath-2">
      <path class="cls-3" d="m0,181.5v266.53c0,16.04,14.71,27.82,30.4,24.63,17.62-3.54,34.19-10.01,49.26-18.87V175.74c-15.06-8.86-31.63-15.33-49.26-18.87-1.75-.35-3.47-.52-5.17-.52-13.61,0-25.24,10.9-25.24,25.16"/>
    </clipPath>
    <linearGradient id="linear-gradient-3" x1="600.68" y1="1181.9" x2="609.54" y2="1181.9" gradientTransform="translate(-19305.85 38038.45) scale(31.92 -31.92)" xlink:href="#linear-gradient"/>
  </defs>
  <g id="Layer_1-2" data-name="Layer 1">
    <g>
      <g class="cls-8">
        <rect class="cls-1" x="41.3" y="-19.59" width="664.37" height="670.01" transform="translate(-114.12 350.36) rotate(-44.28)"/>
      </g>
      <path class="cls-2" d="m326.17,314.76c0,85.68-43.24,161.18-109.08,206.02V108.75c65.84,44.84,109.08,120.33,109.08,206.02"/>
      <g class="cls-7">
        <rect class="cls-4" x="-62.14" y="80.05" width="421.03" height="471.1" transform="translate(-166.44 165.58) rotate(-39.34)"/>
      </g>
      <path class="cls-2" d="m159.4,314.76c0,59.28-32.08,111.12-79.75,139.03V175.74c47.67,27.91,79.75,79.75,79.75,139.03"/>
      <g class="cls-6">
        <rect class="cls-5" x="-109.23" y="184.37" width="298.11" height="263.45" transform="translate(-230.5 147.49) rotate(-50.87)"/>
      </g>
    </g>
  </g>
</svg>